<?xml version="1.0" encoding="UTF-8" standalone="no"?>
<svg
   xmlns:dc="http://purl.org/dc/elements/1.1/"
   xmlns:cc="http://creativecommons.org/ns#"
   xmlns:rdf="http://www.w3.org/1999/02/22-rdf-syntax-ns#"
   xmlns:svg="http://www.w3.org/2000/svg"
   xmlns="http://www.w3.org/2000/svg"
   viewBox="0 0 245.33333 58.666668"
   height="58.666668"
   width="245.33333"
   xml:space="preserve"
   id="svg2"
   version="1.1"><metadata
     id="metadata8"><rdf:RDF><cc:Work
         rdf:about=""><dc:format>image/svg+xml</dc:format><dc:type
           rdf:resource="http://purl.org/dc/dcmitype/StillImage" /></cc:Work></rdf:RDF></metadata><defs
     id="defs6" /><g
     transform="matrix(1.3333333,0,0,-1.3333333,0,58.666667)"
     id="g10"><g
       transform="scale(0.1)"
       id="g12"><path
         id="path14"
         style="fill:#ffffff;fill-opacity:1;fill-rule:evenodd;stroke:none"
         d="m 408.16,183.309 c -2.219,-3.438 -6.09,-6.559 -11.601,-9.457 -5.469,-2.891 -12.61,-4.293 -21.329,-4.293 -11.171,0 -20.429,3.55 -27.73,10.703 -7.301,7.187 -10.941,16.41 -10.941,27.769 v 19.258 c 0,11.332 3.402,20.59 10.203,27.781 6.828,7.102 15.578,10.7 26.328,10.7 10.699,0 19.14,-2.622 25.23,-7.891 6.129,-5.277 9.258,-12.07 9.379,-20.391 l -0.121,-0.347 h -12.066 c -0.391,5.429 -2.461,9.879 -6.211,13.39 -3.75,3.52 -9.141,5.278 -16.211,5.278 -7.149,0 -12.891,-2.7 -17.27,-8.008 -4.371,-5.391 -6.558,-12.192 -6.558,-20.391 v -19.379 c 0,-8.32 2.418,-15.152 7.297,-20.543 4.89,-5.347 11.101,-8.047 18.64,-8.047 5.313,0 9.641,0.7 13.039,2.11 3.364,1.41 5.782,3.008 7.231,4.801 v 21.289 H 375 v 9.961 h 33.16 z m 34.57,-2.5 h 44.258 v -9.918 h -56.91 v 93.507 h 12.652 z m 127.54,28.511 c 0,-11.441 -3.508,-20.929 -10.622,-28.468 -7.07,-7.543 -16.289,-11.293 -27.578,-11.293 -10.941,0 -19.8,3.75 -26.64,11.293 -6.801,7.539 -10.231,17.027 -10.231,28.468 v 16.602 c 0,11.406 3.391,20.898 10.231,28.476 6.84,7.582 15.699,11.372 26.64,11.372 11.289,0 20.508,-3.79 27.578,-11.329 7.114,-7.582 10.622,-17.07 10.622,-28.519 z m -12.649,16.758 c 0,8.563 -2.312,15.594 -6.922,21.063 -4.648,5.461 -10.859,8.199 -18.629,8.199 -7.379,0 -13.242,-2.738 -17.621,-8.199 -4.41,-5.469 -6.597,-12.5 -6.597,-21.063 V 209.32 c 0,-8.672 2.187,-15.742 6.597,-21.211 4.379,-5.468 10.242,-8.199 17.621,-8.199 7.809,0 14.059,2.692 18.629,8.16 4.61,5.469 6.922,12.539 6.922,21.25 z m 31.559,-55.187 v 93.55 h 30.511 c 9.719,0 17.379,-2.152 22.93,-6.371 5.5,-4.218 8.277,-10.539 8.277,-18.941 0.043,-4.098 -1.367,-8.051 -3.988,-11.168 -2.648,-3.289 -6.129,-5.711 -10.461,-7.27 5.621,-1.211 10.071,-3.98 13.321,-8.32 3.242,-4.301 4.839,-9.34 4.839,-15.082 0,-8.551 -2.769,-15.117 -8.32,-19.609 -5.551,-4.532 -13.051,-6.789 -22.578,-6.789 z m 12.66,43.898 v -33.98 h 21.871 c 5.738,0 10.238,1.402 13.437,4.261 3.204,2.852 4.801,6.871 4.801,12.102 0,5.469 -1.328,9.769 -4.019,12.898 -2.66,3.16 -6.801,4.719 -12.34,4.719 h -23.789 z m 0,9.883 h 20.461 c 4.73,0 8.558,1.289 11.488,3.867 2.973,2.582 4.449,6.211 4.449,10.82 0,5.082 -1.597,8.832 -4.797,11.332 -3.171,2.539 -7.781,3.789 -13.75,3.789 H 601.84 Z m 122.07,-29.684 h -39.18 l -8.871,-24.066 h -12.89 l 36.172,93.519 h 10.82 l 35.59,-93.55 H 732.66 Z m -35.238,10.582 h 31.449 l -15.391,42.621 h -0.39 z m 82.379,-24.761 h 44.258 v -9.918 h -56.911 v 93.55 h 12.653 z m 146.371,31.441 h -42.621 v -41.328 h -12.653 v 93.519 h 61.832 v -10 h -49.179 v -32.23 h 42.621 z m 34.687,-41.328 h -12.6992 v 93.5195 h 12.6992 z m 74.771,23.558 c 0,4.258 -1.61,7.891 -4.81,10.739 -3.2,2.89 -8.91,5.351 -17.11,7.312 -9.882,2.34 -17.581,5.821 -23.12,10.391 -5.551,4.609 -8.32,10.348 -8.32,17.297 0,7.269 2.96,13.359 8.941,18.242 5.98,4.848 13.711,7.309 23.199,7.309 10.24,0 18.4,-2.809 24.46,-8.399 6.05,-5.621 8.98,-12.152 8.75,-19.531 l -0.12,-0.391 h -12.07 c 0,5.473 -1.8,9.922 -5.43,13.281 -3.59,3.399 -8.79,5.079 -15.59,5.079 -6.281,0 -11.09,-1.411 -14.449,-4.258 -3.402,-2.852 -5.039,-6.563 -5.039,-11.129 0,-4.102 1.797,-7.5 5.43,-10.203 3.628,-2.731 9.568,-5.117 17.738,-7.149 9.84,-2.461 17.34,-6.05 22.46,-10.82 5.15,-4.762 7.73,-10.621 7.73,-17.648 0,-7.543 -3.08,-13.602 -9.26,-18.172 -6.17,-4.571 -14.22,-6.871 -24.14,-6.871 -9.329,0 -17.61,2.5 -24.759,7.582 -7.191,5.031 -10.672,11.789 -10.43,20.269 l 0.11,0.391 h 12.07 c 0,-5.981 2.231,-10.551 6.649,-13.672 4.371,-3.129 9.839,-4.688 16.36,-4.688 6.37,0 11.45,1.368 15.16,4.059 3.71,2.699 5.59,6.328 5.59,10.98 z m 101.79,-23.558 h -12.65 v 41.289 h -45.4 v -41.32 h -12.65 v 93.55 h 12.65 v -42.3 h 45.4 v 42.257 h 12.65 v -93.507 z m 36.49,0 h -12.6992 v 93.5195 h 12.6992 z m 94.53,0 h -12.62 l -45.04,72.308 -0.39,-0.121 v -72.218 h -12.66 v 93.55 h 12.66 l 45.04,-72.23 0.39,0.117 v 72.113 h 12.66 v -93.55 z m 90.9,12.387 c -2.23,-3.438 -6.1,-6.559 -11.61,-9.457 -5.5,-2.852 -12.61,-4.293 -21.36,-4.293 -11.17,0 -20.39,3.589 -27.7,10.742 -7.3,7.148 -10.94,16.371 -10.94,27.73 v 19.258 c 0,11.371 3.4,20.59 10.2,27.781 6.8,7.141 15.59,10.7 26.33,10.7 10.7,0 19.14,-2.622 25.23,-7.891 6.14,-5.277 9.26,-12.07 9.38,-20.348 l -0.12,-0.39 h -12.07 c -0.39,5.429 -2.46,9.918 -6.21,13.39 -3.75,3.52 -9.14,5.278 -16.21,5.278 -7.15,0 -12.93,-2.661 -17.27,-8.008 -4.37,-5.352 -6.56,-12.153 -6.56,-20.391 v -19.379 c 0,-8.32 2.46,-15.152 7.3,-20.543 4.93,-5.347 11.14,-8.047 18.64,-8.047 5.31,0 9.68,0.7 13.08,2.11 3.36,1.41 5.78,3.051 7.23,4.84 v 21.25 h -20.47 v 9.961 h 33.13 z m 73.36,19.961 1.71,-11.68 0.39,-0.078 2.5,11.758 17.15,61.128 h 11.18 l 17.26,-61.128 2.58,-12.032 h 0.39 l 1.87,11.992 13.95,61.168 h 12.66 l -22.58,-93.507 h -11.29 l -18.44,64.879 -1.68,8.402 h -0.35 l -1.64,-8.402 -18.75,-64.879 h -11.29 l -22.5,93.507 h 12.58 l 14.26,-61.128 z m 145.35,-8.282 h -39.18 l -8.87,-24.066 h -12.93 l 36.17,93.476 h 10.86 l 35.59,-93.507 h -12.89 z m -35.28,10.582 h 31.49 l -15.43,42.578 h -0.39 z m 133.09,48.871 h -30.08 v -83.519 h -12.65 v 83.519 h -30 v 9.957 h 72.69 v -9.957 z m 78.01,-53.589 0.11,-0.391 c 0.2,-8.789 -2.89,-16.141 -9.21,-22.039 -6.33,-5.934 -14.69,-8.863 -25.12,-8.863 -10.59,0 -19.18,3.75 -25.86,11.25 -6.64,7.461 -9.96,16.992 -9.96,28.472 v 16.68 c 0,11.488 3.32,21.019 10,28.519 6.64,7.5 15.27,11.29 25.82,11.29 10.58,0 18.98,-2.809 25.23,-8.442 6.29,-5.617 9.3,-13.117 9.14,-22.418 l -0.11,-0.351 h -12.15 c 0,6.519 -1.92,11.722 -5.78,15.543 -3.87,3.789 -9.3,5.707 -16.29,5.707 -7.07,0 -12.74,-2.848 -16.92,-8.559 -4.18,-5.66 -6.29,-12.73 -6.29,-21.172 v -16.797 c 0,-8.511 2.11,-15.621 6.29,-21.281 4.22,-5.711 9.85,-8.559 16.92,-8.559 6.99,0 12.42,1.911 16.29,5.7 3.86,3.789 5.78,9.031 5.78,15.711 h 12.15 z m 87.93,-29.93 h -12.66 v 41.289 H 1775 v -41.32 h -12.66 v 93.55 H 1775 v -42.3 h 45.39 v 42.257 h 12.66 v -93.507 z" /><path
         id="path16"
         style="fill:#8abac6;fill-opacity:1;fill-rule:evenodd;stroke:none"
         d="m 32.5391,243.109 c 0,0 -38.32035,-72.808 41.5195,-127.257 79.8904,-54.4614 95.0004,-93.3207 95.0004,-93.3207 0,0 10.82,-12.1524 -16.329,-12.54302 C 125.621,9.64063 -77.7695,67.4492 32.5391,243.109 Z m 0.9023,1.563 c 0,0 40.5781,89.457 114.7186,90.156 74.11,0.742 -71.1287,-15.547 -114.7186,-90.117 z" /><path
         id="path18"
         style="fill:#ef4323;fill-opacity:1;fill-rule:evenodd;stroke:none"
         d="m 171.641,153.891 c 0,0 34.058,-15.11 49.097,4.257 15.082,19.34 -20.347,11.332 -49.097,-4.257 z m 37.339,188.48 c 0,0 -46.832,77.77 -96.75,87.699 0,0 -10.589,2.532 -10.199,-6.179 0.348,-8.711 15.899,-13.75 15.899,-13.75 0,0 -13.711,-3.2 -2.969,-14.45 10.738,-11.25 59.059,-16.839 94.059,-53.32 z m 0,0 c 0,0 34.11,-64.801 -36.949,-113.281 C 100.941,180.609 87.5,146.039 87.5,146.039 c 0,0 -9.6094,-10.859 14.488,-11.168 24.141,-0.312 205.203,51.129 107.032,207.5 z" /></g></g></svg>