<?xml version="1.0" encoding="UTF-8" standalone="no"?>
<svg
   xmlns:dc="http://purl.org/dc/elements/1.1/"
   xmlns:cc="http://creativecommons.org/ns#"
   xmlns:rdf="http://www.w3.org/1999/02/22-rdf-syntax-ns#"
   xmlns:svg="http://www.w3.org/2000/svg"
   xmlns="http://www.w3.org/2000/svg"
   viewBox="0 0 365.33334 33.333332"
   height="33.333332"
   width="365.33334"
   xml:space="preserve"
   id="svg2"
   version="1.1"><metadata
     id="metadata8"><rdf:RDF><cc:Work
         rdf:about=""><dc:format>image/svg+xml</dc:format><dc:type
           rdf:resource="http://purl.org/dc/dcmitype/StillImage" /></cc:Work></rdf:RDF></metadata><defs
     id="defs6"><clipPath
       id="clipPath20"
       clipPathUnits="userSpaceOnUse"><path
         id="path18"
         d="M 0,7 V 248 H 731 V 7 Z" /></clipPath></defs><g
     transform="matrix(1.3333333,0,0,-1.3333333,0,33.333333)"
     id="g10"><g
       transform="scale(0.1)"
       id="g12"><g
         id="g14"><g
           clip-path="url(#clipPath20)"
           id="g16"><path
             id="path22"
             style="fill:#ffffff;fill-opacity:1;fill-rule:nonzero;stroke:none"
             d="m 250.16,88.5313 -1.019,1.0898 c -2.11,1.9883 -4.922,3.1992 -8.09,3.1992 -2.18,0 -4.172,-0.582 -5.93,-1.6406 -0.43,-0.3086 -0.859,-0.5508 -1.25,-0.8203 -0.351,-0.2305 -0.711,-0.5078 -1.019,-0.6992 -0.122,-0.0821 -0.231,-0.1602 -0.391,-0.2422 -1.602,-0.9688 -3.281,-1.7188 -5.082,-2.3399 -1.758,-0.5898 -3.668,-1.0195 -5.738,-1.25 -2.11,-0.2695 -4.371,-0.3867 -6.871,-0.3867 -4.418,0 -8.52,0.8594 -12.309,2.5391 -3.832,1.7187 -7.191,4.1797 -10.039,7.4179 -2.852,3.2422 -5.121,7.2696 -6.801,11.9926 -1.672,4.769 -2.5,10.199 -2.5,16.328 0,5.82 0.828,11.09 2.5,15.781 1.68,4.691 3.988,8.711 6.957,11.988 3.012,3.321 6.563,5.864 10.703,7.66 4.141,1.762 8.75,2.661 13.75,2.661 2.891,0 5.43,-0.239 7.578,-0.707 2.153,-0.434 4.063,-0.934 5.661,-1.563 1.609,-0.621 3.011,-1.328 4.179,-2.07 0.16,-0.078 0.321,-0.188 0.473,-0.27 0.547,-0.347 1.058,-0.711 1.558,-0.98 1.641,-0.86 3.481,-1.367 5.43,-1.367 3.641,0 6.84,1.636 8.988,4.179 l 0.903,1.168 6.32,8.563 c -2.223,2.34 -4.762,4.488 -7.652,6.406 -0.778,0.5 -1.559,1.012 -2.379,1.48 -0.281,0.204 -0.59,0.352 -0.899,0.512 -1.961,1.09 -4.031,2.11 -6.25,3.008 -3.441,1.402 -7.152,2.5 -11.101,3.281 -3.942,0.781 -8.16,1.172 -12.649,1.172 -9.222,0 -17.66,-1.492 -25.281,-4.492 -7.648,-3.008 -14.211,-7.188 -19.719,-12.617 -5.472,-5.391 -9.769,-11.844 -12.812,-19.301 -3.051,-7.461 -4.578,-15.621 -4.578,-24.492 0,-8.75 1.328,-16.84 4.027,-24.301 2.652,-7.4571 6.481,-13.8985 11.481,-19.3282 5,-5.4296 11.101,-9.6914 18.242,-12.7812 7.187,-3.0781 15.32,-4.6094 24.379,-4.6094 9.879,0 18.441,1.5703 25.699,4.7696 1.25,0.5898 2.5,1.2109 3.672,1.8828 0.82,0.4297 1.609,0.8867 2.39,1.3593 2.579,1.6407 4.957,3.5196 7.188,5.6289 0.191,0.1915 0.391,0.3516 0.582,0.5391 1.488,1.4922 2.891,3.0899 4.219,4.8125 l -3.399,3.5899 -3.121,3.25" /><path
             id="path24"
             style="fill:#ffffff;fill-opacity:1;fill-rule:nonzero;stroke:none"
             d="m 397.852,108.879 c 0,0 15.429,45.82 16.328,49.141 0.941,-3.282 16.289,-49.141 16.289,-49.141 z m 33.707,65.351 -0.579,1.559 c -1.878,4.02 -5.941,6.801 -10.71,6.801 H 400 L 353.828,63.25 h 20.192 c 4.808,0 8.91,2.8906 10.75,6.9883 l 0.699,2.043 6.011,17.7695 h 45.36 l 5.82,-17.1524 1.09,-3.1992 c 1.949,-3.8281 5.898,-6.4492 10.469,-6.4492 h 20.312 l -42.972,110.98" /><path
             id="path26"
             style="fill:#ffffff;fill-opacity:1;fill-rule:nonzero;stroke:none"
             d="m 642.422,108.879 c 0,0 15.387,45.82 16.289,49.141 C 659.648,154.738 675,108.879 675,108.879 Z m 33.398,66.133 -0.199,0.468 c -1.793,4.18 -5.93,7.11 -10.82,7.11 h -20.27 L 598.359,63.25 h 20.231 c 4.691,0 8.75,2.7383 10.629,6.7188 l 0.941,2.7304 5.86,17.3516 h 45.39 l 5.86,-17.3516 0.929,-2.7304 c 1.879,-3.9805 5.903,-6.7188 10.629,-6.7188 h 20.231 L 675.82,175.012" /><path
             id="path28"
             style="fill:#ffffff;fill-opacity:1;fill-rule:nonzero;stroke:none"
             d="m 563.949,119.418 c 0,-1.867 0.071,-3.898 0.153,-6.09 0.117,-2.148 0.277,-4.367 0.507,-6.637 l -56.597,71.559 -0.082,0.078 c -2.149,2.582 -5.352,4.223 -8.95,4.262 -0.031,0 -0.07,0 -0.152,0 H 484.18 V 63.25 c 0,0 7.582,0.0781 14.8,0.0781 3.25,0 9.61,0.5508 9.61,8.4024 v 55.5075 c 0,1.723 -0.039,3.59 -0.149,5.582 -0.121,1.989 -0.281,4.032 -0.429,6.098 l 55.777,-70.4688 0.512,-0.5898 c 0.308,-0.4297 0.66,-0.8594 1.008,-1.211 1.8,-1.7578 4.14,-2.9296 6.761,-3.2773 0.551,-0.082 1.09,-0.082 1.641,-0.1211 0.078,0 0.16,0 0.238,0 h 14.41 V 182.59 H 571.25 c -7.891,0 -7.301,-5.899 -7.301,-9.031 v -54.141" /><path
             id="path30"
             style="fill:#ffffff;fill-opacity:1;fill-rule:nonzero;stroke:none"
             d="M 341.289,182.59 H 269.301 V 63.25 h 76.789 v 11.1016 c -0.66,5.3867 -4.961,9.6093 -10.391,10.1875 h -38.59 V 112.98 h 37.539 v 20.469 h -37.539 v 27.852 h 38.2 c 5.589,0.39 10.082,4.73 10.781,10.23 v 11.059 h -4.801" /><path
             id="path32"
             style="fill:#ffffff;fill-opacity:1;fill-rule:nonzero;stroke:none"
             d="m 127.23,179.781 c -6.101,6.168 -13.441,11.008 -22.07,14.571 -8.6014,3.507 -18.1287,5.308 -28.6014,5.308 -4.0586,0 -7.9688,-0.281 -11.7578,-0.82 -15.7813,4.058 -46.0117,9.719 -61.71096,-2.578 -7.10937,-6.211 -0.12109,-7.5 2.89063,-8.321 6.32033,-1.679 18.82033,-6.48 14.01953,-14.773 -0.3906,-0.5 -0.7383,-1.047 -1.1289,-1.559 -0.043,-0.078 -0.043,-0.121 -0.082,-0.148 -0.1172,-0.121 -0.1172,-0.16 -0.1602,-0.242 -2.8086,-4.059 -5.1875,-8.438 -7.1094,-13.16 -3.35934,-8.399 -5.03903,-17.457 -5.03903,-27.188 0,-9.769 1.67969,-18.793 5.03903,-27.191 1.25,-3.16 2.8203,-6.1683 4.5,-9.0198 -0.2812,2.6211 -0.3984,5.2695 -0.3984,7.9298 0,43.789 35.5898,79.371 79.3398,79.371 14.1411,0 27.3791,-3.75 38.9101,-10.231 -1.992,2.848 -4.223,5.551 -6.641,8.051" /><path
             id="path34"
             style="fill:#ffffff;fill-opacity:1;fill-rule:nonzero;stroke:none"
             d="m 143.629,144.781 c -0.82,4.02 -1.949,7.887 -3.469,11.68 -13.211,12.848 -31.922,15.148 -43.4803,15.187 3.6293,-1.91 6.9103,-4.449 9.6483,-7.769 6.832,-8.32 10.274,-17.109 10.274,-33.988 0,-11.172 -2.774,-22.891 -8.672,-30.8597 -8.0902,-10.9297 -19.4886,-15.543 -32.2308,-15.543 -10.6992,0 -20.3906,2.1406 -30.039,11.8711 -8.2813,8.2816 -10.8594,21.0586 -10.8594,34.5316 0,1.961 0.1211,3.949 0.2773,5.898 -15.5468,-21.051 -11.7187,-47.4999 -9.8789,-53.9101 0.2305,-0.1875 0.461,-0.4609 0.6992,-0.6601 6.0118,-6.129 13.3204,-10.9375 21.8321,-14.4102 8.5586,-3.4375 17.9687,-5.1992 28.3203,-5.1992 10.3594,0 19.8086,1.7617 28.2892,5.1992 8.512,3.4727 15.738,8.2812 21.789,14.4102 6.019,6.0898 10.711,13.3203 14.031,21.6012 3.32,8.282 4.961,17.231 4.961,26.84 0,5.231 -0.473,10.27 -1.492,15.121" /></g></g><path
         id="path36"
         style="fill:#ffffff;fill-opacity:1;fill-rule:nonzero;stroke:none"
         d="m 2324.65,122.309 c 0,-34.0981 -26.68,-59.2504 -59.42,-59.2504 -32.77,0 -59.45,25.1523 -59.45,59.2504 0,34.339 26.68,59.261 59.45,59.261 32.74,0 59.42,-24.922 59.42,-59.261 z m -26.02,0 c 0,21.332 -15.47,35.902 -33.4,35.902 -17.96,0 -33.43,-14.57 -33.43,-35.902 0,-21.09 15.47,-35.8871 33.43,-35.8871 17.93,0 33.4,14.8401 33.4,35.8871 z" /><path
         id="path38"
         style="fill:#ffffff;fill-opacity:1;fill-rule:nonzero;stroke:none"
         d="m 2452.85,122.309 c 0,-34.0981 -26.68,-59.2504 -59.41,-59.2504 -32.78,0 -59.46,25.1523 -59.46,59.2504 0,34.339 26.68,59.261 59.46,59.261 32.73,0 59.41,-24.922 59.41,-59.261 z m -26.01,0 c 0,21.332 -15.47,35.902 -33.4,35.902 -17.97,0 -33.44,-14.57 -33.44,-35.902 0,-21.09 15.47,-35.8871 33.44,-35.8871 17.93,0 33.4,14.8401 33.4,35.8871 z" /><path
         id="path40"
         style="fill:#ffffff;fill-opacity:1;fill-rule:nonzero;stroke:none"
         d="M 2575.74,177.98 V 71.6094 c 0,-43.75 -25.82,-61.5977 -56.33,-61.5977 -28.71,0 -45.97,19.2188 -52.5,34.918 l 22.66,9.4219 c 4.02,-9.6524 13.91,-21.0235 29.84,-21.0235 19.5,0 31.61,12.0313 31.61,34.7305 v 8.5117 h -0.9 c -5.82,-7.1914 -17.03,-13.4687 -31.21,-13.4687 -29.61,0 -56.76,25.8203 -56.76,58.9764 0,33.481 27.15,59.492 56.76,59.492 14.14,0 25.35,-6.289 31.21,-13.242 h 0.9 v 9.613 h 24.72 z m -22.89,-55.902 c 0,20.902 -13.9,36.133 -31.6,36.133 -17.97,0 -33.01,-15.231 -33.01,-36.133 0,-20.629 15.04,-35.6561 33.01,-35.6561 17.7,0 31.6,15.0271 31.6,35.6561 z" /><path
         id="path42"
         style="fill:#ffffff;fill-opacity:1;fill-rule:nonzero;stroke:none"
         d="m 2591.09,66.6914 h 25.3516 v 173.629 H 2591.09 Z" /><path
         id="path44"
         style="fill:#ffffff;fill-opacity:1;fill-rule:nonzero;stroke:none"
         d="m 2715.35,102.82 20.2,-13.4684 c -6.53,-9.6524 -22.23,-26.25 -49.38,-26.25 -33.67,0 -58.79,26.0078 -58.79,59.2504 0,35.238 25.35,59.218 55.9,59.218 30.74,0 45.78,-24.449 50.67,-37.648 l 2.69,-6.762 -79.18,-32.808 c 6.06,-11.8832 15.51,-17.9301 28.71,-17.9301 13.24,0 22.42,6.5195 29.18,16.3981 z m -62.15,21.328 52.93,21.954 c -2.93,7.429 -11.68,12.578 -21.99,12.578 -13.2,0 -31.64,-11.68 -30.94,-34.532 z" /><path
         id="path46"
         style="fill:#ffffff;fill-opacity:1;fill-rule:nonzero;stroke:none"
         d="m 2109.73,137.738 v 25.121 h 84.72 c 0.82,-4.371 1.25,-9.57 1.25,-15.16 0,-18.859 -5.15,-42.179 -21.79,-58.7771 -16.14,-16.8438 -36.8,-25.8203 -64.14,-25.8203 -50.71,0 -93.32,41.2774 -93.32,91.9884 0,50.699 42.61,91.988 93.32,91.988 28.04,0 48.04,-11.019 63.04,-25.348 l -17.73,-17.742 c -10.78,10.121 -25.35,17.934 -45.35,17.934 -37.03,0 -65.98,-29.801 -65.98,-66.832 0,-37.031 28.95,-66.84 65.98,-66.84 24.02,0 37.69,9.6094 46.44,18.398 7.11,7.071 11.8,17.231 13.63,31.09 z" /><path
         id="path48"
         style="fill:#ffffff;fill-opacity:1;fill-rule:nonzero;stroke:none"
         d="m 813.199,69.3789 v 13.832 c 18.602,-5.539 35.473,-8.2812 50.672,-8.2812 6.328,0 12.418,0.7422 18.199,2.2695 5.821,1.4805 10.231,3.6719 13.2,6.5196 3.011,2.8906 4.5,5.9804 4.5,9.3398 0,3.9023 -2.071,7.5704 -6.18,11.0114 -4.141,3.399 -11.789,7.192 -23.039,11.289 l -11.922,4.262 -11.988,4.301 c -21.09,7.769 -31.602,17.457 -31.602,29.019 0,8.508 4.691,15.661 14.141,21.438 9.449,5.793 24.14,8.68 44.101,8.68 12.809,0 25.239,-1.18 37.27,-3.559 v -12.539 c -13.25,3.211 -26.141,4.848 -38.641,4.848 -10,0 -18.082,-1.68 -24.25,-5 -6.211,-3.278 -9.301,-7.27 -9.301,-11.879 0,-4.649 2.379,-8.481 7.153,-11.52 4.758,-3.012 10.777,-5.82 18.117,-8.359 l 9.07,-3.403 11.211,-4.339 9.61,-3.469 c 19.718,-7.539 29.57,-17.031 29.57,-28.4416 0,-8.75 -5.078,-16.207 -15.238,-22.457 -10.153,-6.2109 -26.403,-9.3398 -48.75,-9.3398 -7.114,0 -13.903,0.3476 -20.391,1.1367 -6.52,0.7422 -15,2.3008 -25.512,4.6406" /><path
         id="path50"
         style="fill:#ffffff;fill-opacity:1;fill-rule:nonzero;stroke:none"
         d="m 955.941,67 v 112.66 h 23.469 v -55.238 l 67.07,55.238 h 24.81 L 1006.6,126.18 1080.35,67 h -29.33 l -71.61,57.422 V 67 h -23.469" /><path
         id="path52"
         style="fill:#ffffff;fill-opacity:1;fill-rule:nonzero;stroke:none"
         d="m 1140.16,67 v 52.109 l -53.71,60.551 h 26.64 l 40.11,-44.691 39.96,44.691 h 24.03 l -53.56,-60.551 V 67 h -23.47" /><path
         id="path54"
         style="fill:#ffffff;fill-opacity:1;fill-rule:nonzero;stroke:none"
         d="m 1282.77,67 v 100.238 h -54.02 v 12.422 h 131.64 v -12.422 h -54.14 V 67 h -23.48" /><path
         id="path56"
         style="fill:#ffffff;fill-opacity:1;fill-rule:nonzero;stroke:none"
         d="M 1406.72,114.852 V 67 h -23.44 v 112.66 h 48.13 c 15.74,0 27.3,-1.019 34.72,-3.012 7.46,-2.027 13.21,-5.039 17.27,-9.097 4.1,-4.063 6.13,-8.442 6.13,-13.129 0,-4.371 -1.37,-8.75 -4.06,-13.16 -2.74,-4.383 -6.49,-8.321 -11.21,-11.801 -4.77,-3.43 -11.64,-6.762 -20.63,-9.84 L 1505.86,67 h -28.01 l -47.65,47.852 z m 0,11.328 h 32.85 c 7.38,2.5 12.89,5.082 16.48,7.699 3.6,2.609 6.33,5.391 8.17,8.359 1.87,2.934 2.77,5.891 2.77,8.793 0,5.309 -3.08,9.489 -9.22,12.61 -6.17,3.129 -17.34,4.687 -33.47,4.687 h -17.58 V 126.18" /><path
         id="path58"
         style="fill:#ffffff;fill-opacity:1;fill-rule:nonzero;stroke:none"
         d="m 1523.28,179.66 h 23.48 v -73.949 c 0,-9.7618 1.29,-16.4024 3.86,-19.961 2.62,-3.5508 6.65,-6.25 12.04,-8.0781 5.39,-1.8828 11.36,-2.8203 17.93,-2.8203 6.95,0 13.16,1.0195 18.67,3.0078 5.47,1.9922 9.49,5.1601 12.03,9.4219 2.58,4.25 3.87,12.3398 3.87,24.1677 v 68.211 h 21.64 v -73.519 c 0,-10.5121 -2.5,-18.7504 -7.46,-24.6918 -5,-5.8906 -11.53,-10.3906 -19.61,-13.3476 -8.09,-3.0118 -18.25,-4.5 -30.47,-4.5 -11.25,0 -21.21,1.289 -29.81,3.9101 -8.59,2.6172 -15.15,6.5586 -19.57,11.7578 -4.37,5.2305 -6.6,14.6524 -6.6,28.2815 v 72.109" /><path
         id="path60"
         style="fill:#ffffff;fill-opacity:1;fill-rule:nonzero;stroke:none"
         d="m 1711.02,67 v 100.238 h -54.07 v 12.422 h 131.64 v -12.422 h -54.14 V 67 h -23.43" /><path
         id="path62"
         style="fill:#ffffff;fill-opacity:1;fill-rule:nonzero;stroke:none"
         d="m 1808.79,67 v 112.66 h 23.44 v -48.519 h 66.72 v 48.519 h 23.35 V 67 h -23.35 v 52.969 h -66.72 V 67 h -23.44" /></g></g></svg>